<svg width="60" height="60" viewBox="0 0 60 60" fill="none" xmlns="http://www.w3.org/2000/svg">
<circle cx="30" cy="30" r="30" fill="#EB5757"/>
<path d="M40.59 17.7061C40.7071 17.7783 40.8032 17.8759 40.8697 17.9904C40.9362 18.1049 40.9711 18.2327 40.9713 18.3625V30.2252C40.9712 30.3832 40.9198 30.5375 40.8237 30.6683C40.7276 30.7991 40.5911 30.9004 40.4319 30.9591L40.1125 30.2252L40.4319 30.9591L40.4268 30.9607L40.4165 30.9655L40.377 30.9797C40.1512 31.0623 39.9238 31.1414 39.6951 31.217C39.2417 31.3672 38.6113 31.5697 37.8968 31.7705C36.4953 32.1691 34.6695 32.5978 33.2421 32.5978C31.7874 32.5978 30.5833 32.1549 29.5356 31.7674L29.4875 31.7516C28.3986 31.3482 27.4711 31.0161 26.3718 31.0161C25.1695 31.0161 23.5584 31.3799 22.1861 31.7705C21.5716 31.9469 20.9628 32.1394 20.3603 32.3479V42.088C20.3603 42.2977 20.2698 42.4989 20.1087 42.6472C19.9477 42.7955 19.7293 42.8788 19.5015 42.8788C19.2737 42.8788 19.0553 42.7955 18.8942 42.6472C18.7332 42.4989 18.6427 42.2977 18.6427 42.088V18.3625C18.6427 18.1528 18.7332 17.9516 18.8942 17.8033C19.0553 17.655 19.2737 17.5717 19.5015 17.5717C19.7293 17.5717 19.9477 17.655 20.1087 17.8033C20.2698 17.9516 20.3603 18.1528 20.3603 18.3625V18.8085C20.7485 18.6836 21.2122 18.5397 21.7172 18.3973C23.1187 18.0019 24.9462 17.5717 26.3718 17.5717C27.8146 17.5717 28.9894 18.0098 30.0148 18.3926L30.0887 18.421C31.157 18.818 32.0879 19.1534 33.2421 19.1534C34.4445 19.1534 36.0555 18.7896 37.4279 18.3989C38.2099 18.174 38.9828 17.9229 39.7449 17.646L39.7775 17.6349L39.7844 17.6318H39.7861" fill="white"/>
</svg>
