<svg width="75" height="75" viewBox="0 0 75 75" fill="none" xmlns="http://www.w3.org/2000/svg">
<g clip-path="url(#clip0_165_161)">
<path d="M71.875 31.25H40.625V12.95C40.625 8.64688 43.5406 4.90625 47.7156 3.85625L62.1437 0.234378C66.9094 -1.10625 72.0062 2.88125 71.875 7.82188V31.25ZM34.375 12.95C34.375 8.64688 31.4594 4.90625 27.2844 3.85625L12.8562 0.234378C8.09375 -1.09687 2.99062 2.87813 3.125 7.82188V31.25H34.375V12.95ZM75 37.5C75 58.1781 58.1781 75 37.5 75C16.8219 75 0 58.1781 0 37.5H6.25C6.25 40.7656 6.75625 43.9125 7.69062 46.875H18.4469C17.6781 43.8875 17.1875 40.7563 17.1875 37.5H23.4375C23.4375 40.75 23.9969 43.9 24.9062 46.875H50.0875C51 43.8969 51.5625 40.7469 51.5625 37.5H57.8125C57.8125 40.7563 57.3219 43.8875 56.5531 46.875H67.3094C68.2438 43.9125 68.75 40.7656 68.75 37.5H75ZM27.4156 53.125C30.6156 59.6437 34.9562 64.7656 37.4969 67.4563C40.0344 64.7625 44.3688 59.6344 47.5687 53.125H27.4156ZM29.3406 67.6312C26.4031 63.9844 23.0156 58.9844 20.5562 53.125H10.4781C14.5656 60.1656 21.3094 65.4531 29.3406 67.6312ZM64.5219 53.125H54.4438C51.9844 58.9844 48.6 63.9844 45.6594 67.6312C53.6906 65.4531 60.4344 60.1656 64.5219 53.125Z" fill="#8AA3B5"/>
</g>
<defs>
<clipPath id="clip0_165_161">
<rect width="75" height="75" fill="white"/>
</clipPath>
</defs>
</svg>
