<svg width="73" height="75" viewBox="0 0 73 75" fill="none" xmlns="http://www.w3.org/2000/svg">
<path d="M28.125 37.5C17.7844 37.5 9.375 29.0906 9.375 18.75C9.375 8.40938 17.7844 0 28.125 0C38.4656 0 46.875 8.40938 46.875 18.75C46.875 29.0906 38.4656 37.5 28.125 37.5ZM70.925 59.7938L67.8812 58.0375C68.4 56.4844 68.75 54.8531 68.75 53.125C68.75 51.3969 68.4031 49.7656 67.8812 48.2125L70.925 46.4562C72.4187 45.5938 72.9313 43.6813 72.0687 42.1875C71.2031 40.6906 69.2969 40.175 67.8 41.0438L64.7594 42.8C62.5562 40.3187 59.6219 38.5031 56.25 37.8188V34.3781C56.25 32.6531 54.85 31.2531 53.125 31.2531C51.4 31.2531 50 32.6531 50 34.3781V37.8188C46.6281 38.5063 43.6938 40.3219 41.4906 42.8L38.45 41.0438C36.95 40.1781 35.0438 40.6906 34.1812 42.1875C33.3187 43.6844 33.8312 45.5938 35.325 46.4562L38.3688 48.2125C37.85 49.7656 37.5 51.3969 37.5 53.125C37.5 54.8531 37.8469 56.4844 38.3688 58.0375L35.325 59.7938C33.8312 60.6563 33.3187 62.5687 34.1812 64.0625C34.7625 65.0656 35.8094 65.625 36.8906 65.625C37.4188 65.625 37.9562 65.4906 38.45 65.2062L41.4906 63.45C43.6938 65.9313 46.6281 67.7469 50 68.4313V71.8719C50 73.5969 51.4 74.9969 53.125 74.9969C54.85 74.9969 56.25 73.5969 56.25 71.8719V68.4313C59.6219 67.7438 62.5562 65.9281 64.7594 63.45L67.8 65.2062C68.2937 65.4906 68.8312 65.625 69.3594 65.625C70.4406 65.625 71.4906 65.0656 72.0687 64.0625C72.9313 62.5656 72.4187 60.6563 70.925 59.7938ZM53.125 57.8125C50.5406 57.8125 48.4375 55.7094 48.4375 53.125C48.4375 50.5406 50.5406 48.4375 53.125 48.4375C55.7094 48.4375 57.8125 50.5406 57.8125 53.125C57.8125 55.7094 55.7094 57.8125 53.125 57.8125ZM25 53.125C25 49.8625 25.5844 46.7406 26.6063 43.8281C11.8062 44.6219 0 56.8813 0 71.875C0 73.6 1.4 75 3.125 75H35.4656C29.0875 69.8438 25 61.9656 25 53.125Z" fill="#8AA3B5"/>
</svg>
